<?xml version="1.0" encoding="utf-8"?>
<!-- Generator: Adobe Illustrator 16.0.0, SVG Export Plug-In . SVG Version: 6.00 Build 0)  -->
<!DOCTYPE svg PUBLIC "-//W3C//DTD SVG 1.1//EN" "http://www.w3.org/Graphics/SVG/1.1/DTD/svg11.dtd">
<svg version="1.1" id="Layer_1" xmlns="http://www.w3.org/2000/svg" xmlns:xlink="http://www.w3.org/1999/xlink" x="0px" y="0px"
	 width="385px" height="83px" viewBox="0 0 385 83" enable-background="new 0 0 385 83" xml:space="preserve">
<g>
	<path fill="#C4C4C4" d="M42.025,22.249h6.426l-18.485,38.64H23.54L42.025,22.249z"/>
	<path fill="#C4C4C4" d="M61.592,26.338h13.812c4.465,0,7.552,1.168,9.514,3.171c1.71,1.669,2.587,3.922,2.587,6.801v0.083
		c0,4.465-2.379,7.427-6.01,8.972l6.969,10.182h-9.347L73.234,46.7h-3.547v8.848h-8.095V26.338L61.592,26.338z M75.028,40.358
		c2.754,0,4.34-1.335,4.34-3.463v-0.083c0-2.295-1.669-3.464-4.382-3.464h-5.299v7.011L75.028,40.358L75.028,40.358z"/>
	<path fill="#C4C4C4" d="M103.148,26.338h23.492v6.885h-15.48v4.423h14.02v6.383h-14.02v4.633h15.69v6.885h-23.702V26.338z"/>
	<path fill="#C4C4C4" d="M142.534,26.338h12.518c7.386,0,12.143,3.797,12.143,10.265v0.084c0,6.885-5.299,10.516-12.56,10.516
		h-4.006v8.345h-8.095V26.338L142.534,26.338z M154.468,40.859c2.879,0,4.632-1.502,4.632-3.798v-0.083
		c0-2.504-1.753-3.839-4.674-3.839h-3.798v7.72H154.468z"/>
	<path fill="#C4C4C4" d="M179.834,26.338h9.055l6.634,18.485l6.636-18.485h8.888l-11.852,29.419h-7.51L179.834,26.338z"/>
	<path fill="#C4C4C4" d="M225.438,26.338h14.98c3.672,0,6.258,0.918,7.971,2.629c1.166,1.167,1.877,2.711,1.877,4.715v0.083
		c0,3.38-1.92,5.383-4.506,6.509c3.547,1.168,5.799,3.169,5.799,7.136v0.082c0,5.009-4.088,8.055-11.057,8.055h-15.064V26.338z
		 M238.415,37.979c2.463,0,3.839-0.834,3.839-2.545v-0.083c0-1.586-1.251-2.504-3.672-2.504h-5.257v5.132H238.415z M239.584,49.039
		c2.46,0,3.879-0.961,3.879-2.672v-0.083c0-1.585-1.251-2.628-3.963-2.628h-6.175v5.383H239.584z"/>
	<path fill="#C4C4C4" d="M266.826,26.338h8.096v22.116h14.145v7.094h-22.239L266.826,26.338L266.826,26.338z"/>
	<path fill="#C4C4C4" d="M304.253,26.338h8.136v29.21h-8.136V26.338z"/>
	<path fill="#C4C4C4" d="M328.284,41.026v-0.083c0-8.513,6.551-15.189,15.396-15.189c5.969,0,9.809,2.504,12.394,6.093l-6.092,4.715
		c-1.671-2.086-3.589-3.422-6.386-3.422c-4.089,0-6.968,3.463-6.968,7.72v0.083c0,4.381,2.879,7.802,6.968,7.802
		c3.047,0,4.843-1.419,6.595-3.545l6.091,4.339c-2.752,3.798-6.467,6.593-12.935,6.593
		C335.003,56.131,328.284,49.747,328.284,41.026z"/>
</g>
<path fill="#C4C4C4" d="M376,76H6V7h370V76z M12,70h358V13H12V70z"/>
</svg>
